<?xml version="1.0" encoding="UTF-8" standalone="no"?>
<svg
   xmlns:dc="http://purl.org/dc/elements/1.1/"
   xmlns:cc="http://creativecommons.org/ns#"
   xmlns:rdf="http://www.w3.org/1999/02/22-rdf-syntax-ns#"
   xmlns:svg="http://www.w3.org/2000/svg"
   xmlns="http://www.w3.org/2000/svg"
   xmlns:sodipodi="http://sodipodi.sourceforge.net/DTD/sodipodi-0.dtd"
   xmlns:inkscape="http://www.inkscape.org/namespaces/inkscape"
   version="1.1"
   id="svg2"
   width="397.21024"
   height="403.54596"
   viewBox="0 0 397.21024 403.54597"
   sodipodi:docname="favicon-master.svg"
   inkscape:version="1.0.2 (e86c870879, 2021-01-15)">
  <metadata
     id="metadata8">
    <rdf:RDF>
      <cc:Work
         rdf:about="">
        <dc:format>image/svg+xml</dc:format>
        <dc:type
           rdf:resource="http://purl.org/dc/dcmitype/StillImage" />
        <dc:title></dc:title>
      </cc:Work>
    </rdf:RDF>
  </metadata>
  <defs
     id="defs6">
    <rect
       x="152.60402"
       y="58.444729"
       width="647.44556"
       height="243.37546"
       id="rect112" />
    <rect
       x="228.56001"
       y="433.17551"
       width="101.5987"
       height="89.242088"
       id="rect106" />
    <rect
       x="403.50024"
       y="323.02591"
       width="28.235928"
       height="51.780354"
       id="rect100" />
  </defs>
  <sodipodi:namedview
     pagecolor="#ffffff"
     bordercolor="#666666"
     borderopacity="1"
     objecttolerance="10"
     gridtolerance="10"
     guidetolerance="10"
     inkscape:pageopacity="0"
     inkscape:pageshadow="2"
     inkscape:window-width="3816"
     inkscape:window-height="2104"
     id="namedview4"
     showgrid="false"
     inkscape:object-paths="false"
     inkscape:zoom="4"
     inkscape:cx="161.92409"
     inkscape:cy="278.88131"
     inkscape:window-x="3848"
     inkscape:window-y="8"
     inkscape:window-maximized="0"
     inkscape:current-layer="g10"
     inkscape:pagecheckerboard="true"
     fit-margin-top="1"
     fit-margin-left="1"
     fit-margin-right="1"
     fit-margin-bottom="1"
     inkscape:document-rotation="0" />
  <g
     inkscape:groupmode="layer"
     inkscape:label="Image"
     id="g10"
     style="display:inline"
     transform="translate(-587.59178,-307.41785)">
    <ellipse
       style="fill:#121111;stroke-width:1.08728"
       id="path152"
       cx="786.1969"
       cy="509.19083"
       rx="197.60512"
       ry="200.77298" />
    <g
       id="g146"
       transform="translate(32.448712,66.403122)"
       inkscape:label="g146">
      <g
         id="g1052"
         transform="translate(3.5441702,-4.5466251)">
        <g
           id="g869"
           transform="translate(10.665527,-6.4409026)">
          <g
             aria-label="位"
             id="text118"
             style="fill:#00ffff"
             transform="translate(-7.6866788,-7.3865393)">
            <path
               d="m 714.67712,360.79236 7.8125,22.26562 -82.61718,196.09375 h 37.10937 l 50.78125,-125.97656 10.35156,-27.53906 9.17969,27.53906 30.85938,87.5 c 2.53906,7.42188 5.27343,13.67188 8.00781,18.75 2.73437,5.27344 5.66406,9.57031 8.98437,12.69531 3.32032,3.32032 7.03125,5.66407 11.13282,7.22657 4.10156,1.5625 8.78906,2.14843 14.25781,2.14843 5.46875,0 11.71875,-0.78125 18.75,-2.34375 v -27.92968 c -1.5625,0.39062 -2.73438,0.39062 -3.90625,0.39062 h -3.51563 c -2.73437,0 -5.27343,-0.19531 -7.22656,-0.97656 -1.95312,-0.78125 -3.90625,-1.95313 -5.46875,-3.71094 -1.5625,-1.5625 -3.125,-3.90625 -4.49219,-6.83594 -1.5625,-2.73437 -2.92968,-6.44531 -4.49218,-10.9375 L 746.70837,349.26892 c -3.71093,-10.15625 -7.61718,-18.55469 -11.71875,-25 -4.10156,-6.25 -8.59375,-11.13281 -13.28125,-14.64844 -4.88281,-3.51562 -10.15625,-5.85937 -15.625,-7.03125 -5.46875,-1.17187 -11.52343,-1.75781 -18.16406,-1.75781 -4.29687,0 -8.98437,0.58594 -14.45312,1.36719 -5.46875,0.97656 -10.35157,2.14844 -14.64844,3.51562 v 28.71094 c 4.10156,-1.36719 8.20312,-2.53906 12.5,-3.32031 4.29687,-0.78125 8.20312,-1.17188 11.71875,-1.17188 3.71094,0 7.03125,0.58594 10.15625,1.36719 2.92969,0.97656 5.66406,2.53906 8.00781,4.88281 2.34375,2.34375 4.6875,5.66407 6.83594,9.57032 2.14844,3.90625 4.29687,8.98437 6.64062,15.03906 z"
               style="fill:#00ffff"
               id="path1040" />
          </g>
          <g
             aria-label="位"
             id="text127"
             style="fill:#ffff00"
             transform="translate(-3.0068954,-0.38526368)">
            <path
               d="m 718.18495,363.99281 7.8125,22.26563 -82.61719,196.09375 h 37.10938 l 50.78125,-125.97657 10.35156,-27.53906 9.17969,27.53906 30.85937,87.5 c 2.53907,7.42188 5.27344,13.67188 8.00782,18.75 2.73437,5.27344 5.66406,9.57032 8.98437,12.69532 3.32031,3.32031 7.03125,5.66406 11.13281,7.22656 4.10157,1.5625 8.78907,2.14844 14.25782,2.14844 5.46875,0 11.71875,-0.78125 18.75,-2.34375 V 554.4225 c -1.5625,0.39062 -2.73438,0.39062 -3.90625,0.39062 h -3.51563 c -2.73437,0 -5.27344,-0.19531 -7.22656,-0.97656 -1.95313,-0.78125 -3.90625,-1.95312 -5.46875,-3.71094 -1.5625,-1.5625 -3.125,-3.90625 -4.49219,-6.83593 -1.5625,-2.73438 -2.92969,-6.44532 -4.49219,-10.9375 L 750.2162,352.46937 c -3.71094,-10.15625 -7.61719,-18.55468 -11.71875,-25 -4.10156,-6.25 -8.59375,-11.13281 -13.28125,-14.64843 -4.88281,-3.51563 -10.15625,-5.85938 -15.625,-7.03125 -5.46875,-1.17188 -11.52344,-1.75782 -18.16406,-1.75782 -4.29688,0 -8.98438,0.58594 -14.45313,1.36719 -5.46875,0.97656 -10.35156,2.14844 -14.64843,3.51563 v 28.71093 c 4.10156,-1.36718 8.20312,-2.53906 12.5,-3.32031 4.29687,-0.78125 8.20312,-1.17187 11.71875,-1.17187 3.71093,0 7.03125,0.58593 10.15625,1.36718 2.92968,0.97657 5.66406,2.53907 8.00781,4.88282 2.34375,2.34375 4.6875,5.66406 6.83594,9.57031 2.14843,3.90625 4.29687,8.98437 6.64062,15.03906 z"
               style="fill:#ffff00"
               id="path1031" />
          </g>
          <g
             aria-label="位"
             id="text131"
             style="fill:#ff00ff"
             transform="translate(0.97509304,6.0256854)">
            <path
               d="m 722.44943,368.19311 7.8125,22.26562 -82.61719,196.09375 h 37.10938 l 50.78125,-125.97656 10.35156,-27.53906 9.17969,27.53906 30.85937,87.5 c 2.53906,7.42188 5.27344,13.67188 8.00781,18.75 2.73438,5.27344 5.66407,9.57031 8.98438,12.69531 3.32031,3.32032 7.03125,5.66407 11.13281,7.22657 4.10156,1.5625 8.78906,2.14843 14.25781,2.14843 5.46875,0 11.71875,-0.78125 18.75,-2.34375 V 558.6228 c -1.5625,0.39062 -2.73437,0.39062 -3.90625,0.39062 h -3.51562 c -2.73438,0 -5.27344,-0.19531 -7.22656,-0.97656 -1.95313,-0.78125 -3.90625,-1.95313 -5.46875,-3.71094 -1.5625,-1.5625 -3.125,-3.90625 -4.49219,-6.83594 -1.5625,-2.73437 -2.92969,-6.44531 -4.49219,-10.9375 L 754.48068,356.66967 c -3.71094,-10.15625 -7.61719,-18.55469 -11.71875,-25 -4.10156,-6.25 -8.59375,-11.13281 -13.28125,-14.64844 -4.88281,-3.51562 -10.15625,-5.85937 -15.625,-7.03125 -5.46875,-1.17187 -11.52344,-1.75781 -18.16406,-1.75781 -4.29688,0 -8.98438,0.58594 -14.45313,1.36719 -5.46875,0.97656 -10.35156,2.14844 -14.64844,3.51562 v 28.71094 c 4.10157,-1.36719 8.20313,-2.53906 12.5,-3.32031 4.29688,-0.78125 8.20313,-1.17188 11.71875,-1.17188 3.71094,0 7.03125,0.58594 10.15625,1.36719 2.92969,0.97656 5.66407,2.53906 8.00782,4.88281 2.34375,2.34375 4.6875,5.66407 6.83593,9.57032 2.14844,3.90625 4.29688,8.98437 6.64063,15.03906 z"
               style="fill:#ff00ff"
               id="path1037" />
          </g>
          <g
             aria-label="位"
             id="text96"
             style="fill:#000000"
             transform="translate(-54.306122,33.239959)">
            <path
               d="m 786.32764,351.19659 7.8125,22.26563 -82.61719,196.09375 h 37.10937 l 50.78125,-125.97656 10.35157,-27.53907 9.17968,27.53907 30.85938,87.5 c 2.53906,7.42187 5.27344,13.67187 8.00781,18.75 2.73438,5.27343 5.66406,9.57031 8.98438,12.69531 3.32031,3.32031 7.03125,5.66406 11.13281,7.22656 4.10156,1.5625 8.78906,2.14844 14.25781,2.14844 5.46875,0 11.71875,-0.78125 18.75,-2.34375 v -27.92969 c -1.5625,0.39063 -2.73437,0.39063 -3.90625,0.39063 h -3.51562 c -2.73438,0 -5.27344,-0.19532 -7.22657,-0.97657 -1.95312,-0.78125 -3.90625,-1.95312 -5.46875,-3.71093 -1.5625,-1.5625 -3.125,-3.90625 -4.49218,-6.83594 -1.5625,-2.73438 -2.92969,-6.44531 -4.49219,-10.9375 L 818.35889,339.67316 c -3.71094,-10.15625 -7.61719,-18.55469 -11.71875,-25 -4.10157,-6.25 -8.59375,-11.13282 -13.28125,-14.64844 -4.88282,-3.51563 -10.15625,-5.85938 -15.625,-7.03125 -5.46875,-1.17188 -11.52344,-1.75781 -18.16407,-1.75781 -4.29687,0 -8.98437,0.58593 -14.45312,1.36718 -5.46875,0.97657 -10.35156,2.14844 -14.64844,3.51563 v 28.71094 c 4.10156,-1.36719 8.20313,-2.53907 12.5,-3.32032 4.29688,-0.78125 8.20313,-1.17187 11.71875,-1.17187 3.71094,0 7.03125,0.58594 10.15625,1.36719 2.92969,0.97656 5.66406,2.53906 8.00781,4.88281 2.34375,2.34375 4.6875,5.66406 6.83594,9.57031 2.14844,3.90625 4.29688,8.98438 6.64063,15.03906 z"
               style="fill:#ffffff"
               id="path1034" />
          </g>
        </g>
      </g>
    </g>
  </g>
</svg>
