<?xml version="1.0" encoding="UTF-8" standalone="no"?>
<svg
   width="397.21"
   height="403.546"
   version="1.1"
   id="svg16"
   sodipodi:docname="favicon.svg"
   inkscape:version="1.2 (dc2aedaf03, 2022-05-15)"
   xmlns:inkscape="http://www.inkscape.org/namespaces/inkscape"
   xmlns:sodipodi="http://sodipodi.sourceforge.net/DTD/sodipodi-0.dtd"
   xmlns="http://www.w3.org/2000/svg"
   xmlns:svg="http://www.w3.org/2000/svg">
  <defs
     id="defs20" />
  <sodipodi:namedview
     id="namedview18"
     pagecolor="#ffffff"
     bordercolor="#666666"
     borderopacity="1.0"
     inkscape:showpageshadow="2"
     inkscape:pageopacity="0.0"
     inkscape:pagecheckerboard="0"
     inkscape:deskcolor="#d1d1d1"
     showgrid="false"
     inkscape:zoom="2.5449392"
     inkscape:cx="198.82597"
     inkscape:cy="202.16593"
     inkscape:window-width="2540"
     inkscape:window-height="1392"
     inkscape:window-x="8"
     inkscape:window-y="8"
     inkscape:window-maximized="1"
     inkscape:current-layer="g14" />
  <g
     style="display:inline"
     transform="translate(-587.592 -307.418)"
     id="g14">
    <ellipse
       style="fill:#121111;stroke-width:1.08728"
       cx="786.197"
       cy="509.191"
       rx="197.605"
       ry="200.773"
       id="ellipse2" />
    <path
       d="m 738.31569,415.57298 7.813,22.266 -82.618,196.094 h 37.11 l 50.781,-125.977 10.352,-27.539 9.18,27.54 30.859,87.5 c 2.539,7.421 5.273,13.671 8.007,18.75 2.735,5.273 5.665,9.57 8.985,12.694 3.32,3.32 7.031,5.665 11.133,7.227 4.101,1.563 8.789,2.148 14.257,2.148 5.47,0 11.72,-0.78 18.75,-2.343 v -27.93 c -1.562,0.39 -2.734,0.39 -3.906,0.39 h -3.515 c -2.735,0 -5.274,-0.195 -7.227,-0.976 -1.953,-0.781 -3.906,-1.953 -5.469,-3.71 -1.562,-1.563 -3.125,-3.907 -4.492,-6.837 -1.562,-2.734 -2.93,-6.445 -4.492,-10.937 l -63.477,-179.883 c -3.71,-10.156 -7.617,-18.555 -11.718,-25 -4.102,-6.25 -8.594,-11.133 -13.282,-14.649 -4.882,-3.515 -10.156,-5.859 -15.625,-7.03 -5.468,-1.173 -11.523,-1.759 -18.164,-1.759 -4.297,0 -8.984,0.586 -14.453,1.368 -5.469,0.976 -10.351,2.148 -14.648,3.515 v 28.711 c 4.101,-1.367 8.203,-2.539 12.5,-3.32 4.297,-0.781 8.203,-1.172 11.718,-1.172 3.711,0 7.032,0.586 10.157,1.367 2.93,0.977 5.664,2.54 8.008,4.883 2.343,2.344 4.687,5.664 6.835,9.57 2.149,3.907 4.297,8.985 6.641,15.04 z"
       style="fill:#00ffff"
       aria-label="位"
       id="path4" />
    <path
       d="m 746.50369,425.77398 7.812,22.265 -82.617,196.094 h 37.11 l 50.78,-125.976 10.352,-27.54 9.18,27.54 30.86,87.5 c 2.539,7.422 5.273,13.672 8.007,18.75 2.735,5.273 5.664,9.57 8.985,12.695 3.32,3.32 7.03,5.664 11.133,7.227 4.101,1.562 8.789,2.148 14.257,2.148 5.47,0 11.72,-0.781 18.75,-2.344 v -27.93 c -1.562,0.391 -2.734,0.391 -3.906,0.391 h -3.516 c -2.734,0 -5.273,-0.195 -7.226,-0.976 -1.953,-0.782 -3.906,-1.954 -5.469,-3.711 -1.562,-1.563 -3.125,-3.907 -4.492,-6.836 -1.563,-2.735 -2.93,-6.446 -4.492,-10.938 l -63.477,-179.882 c -3.71,-10.156 -7.617,-18.554 -11.719,-25 -4.101,-6.25 -8.593,-11.132 -13.28,-14.648 -4.884,-3.516 -10.157,-5.86 -15.626,-7.031 -5.469,-1.172 -11.523,-1.758 -18.164,-1.758 -4.297,0 -8.984,0.586 -14.453,1.367 -5.469,0.977 -10.352,2.149 -14.648,3.516 v 28.71 c 4.101,-1.367 8.203,-2.538 12.5,-3.32 4.296,-0.78 8.203,-1.172 11.718,-1.172 3.711,0 7.032,0.586 10.157,1.368 2.93,0.976 5.664,2.539 8.007,4.882 2.344,2.344 4.688,5.665 6.836,9.57 2.149,3.907 4.297,8.985 6.641,15.04 z"
       style="fill:#ffff00"
       aria-label="位"
       id="path6" />
    <path
       d="m 754.75069,436.38498 7.812,22.266 -82.617,196.093 h 37.11 l 50.78,-125.976 10.352,-27.54 9.18,27.54 30.859,87.5 c 2.539,7.422 5.273,13.672 8.008,18.75 2.734,5.273 5.664,9.57 8.984,12.695 3.32,3.32 7.031,5.664 11.133,7.227 4.102,1.562 8.789,2.148 14.258,2.148 5.469,0 11.719,-0.781 18.75,-2.344 v -27.93 c -1.563,0.391 -2.735,0.391 -3.906,0.391 h -3.516 c -2.734,0 -5.274,-0.195 -7.227,-0.976 -1.953,-0.781 -3.906,-1.953 -5.468,-3.711 -1.563,-1.563 -3.125,-3.906 -4.493,-6.836 -1.562,-2.734 -2.93,-6.445 -4.492,-10.938 l -63.476,-179.882 c -3.711,-10.157 -7.618,-18.555 -11.72,-25 -4.1,-6.25 -8.593,-11.133 -13.28,-14.649 -4.883,-3.515 -10.157,-5.86 -15.625,-7.031 -5.47,-1.172 -11.524,-1.758 -18.164,-1.758 -4.297,0 -8.985,0.586 -14.454,1.367 -5.468,0.977 -10.351,2.149 -14.648,3.516 v 28.71 c 4.102,-1.366 8.203,-2.538 12.5,-3.32 4.297,-0.78 8.203,-1.171 11.719,-1.171 3.71,0 7.031,0.586 10.156,1.367 2.93,0.976 5.664,2.539 8.008,4.883 2.344,2.343 4.687,5.664 6.836,9.57 2.148,3.906 4.297,8.984 6.64,15.04 z"
       style="fill:#ff00ff"
       aria-label="位"
       id="path8" />
    <g
       style="fill:#000000"
       id="g12"
       transform="translate(-15.333309,6.7509853)">
      <path
         d="m 786.328,351.197 7.812,22.265 -82.617,196.094 h 37.11 l 50.78,-125.977 10.352,-27.539 9.18,27.54 30.86,87.5 c 2.538,7.421 5.273,13.671 8.007,18.75 2.734,5.273 5.664,9.57 8.984,12.695 3.32,3.32 7.032,5.664 11.133,7.226 4.102,1.563 8.79,2.149 14.258,2.149 5.469,0 11.719,-0.782 18.75,-2.344 v -27.93 c -1.562,0.39 -2.734,0.39 -3.906,0.39 h -3.516 c -2.734,0 -5.273,-0.194 -7.226,-0.976 -1.954,-0.78 -3.907,-1.953 -5.47,-3.71 -1.562,-1.563 -3.124,-3.907 -4.491,-6.837 -1.563,-2.734 -2.93,-6.445 -4.493,-10.937 L 818.36,339.673 c -3.711,-10.156 -7.617,-18.555 -11.719,-25 -4.101,-6.25 -8.594,-11.133 -13.281,-14.648 -4.883,-3.516 -10.156,-5.86 -15.625,-7.032 -5.469,-1.171 -11.524,-1.757 -18.164,-1.757 -4.297,0 -8.985,0.586 -14.453,1.367 -5.47,0.976 -10.352,2.148 -14.649,3.515 v 28.711 c 4.102,-1.367 8.203,-2.539 12.5,-3.32 4.297,-0.781 8.203,-1.172 11.719,-1.172 3.71,0 7.031,0.586 10.156,1.367 2.93,0.977 5.664,2.54 8.008,4.883 2.344,2.344 4.688,5.664 6.836,9.57 2.148,3.907 4.297,8.985 6.64,15.04 z"
         style="fill:#ffffff"
         transform="translate(-7.648,88.656)"
         aria-label="位"
         id="path10" />
    </g>
  </g>
</svg>
